<svg version="1.1" id="Layer_1" xmlns="http://www.w3.org/2000/svg" xmlns:xlink="http://www.w3.org/1999/xlink" x="0px" y="0px"
	 width="100%" viewBox="0 0 496 496" enable-background="new 0 0 496 496" xml:space="preserve">
<path fill="#000000" opacity="1.000000" stroke="none" 
	d="
M292.000000,444.879883 
	C253.839401,444.899078 216.176987,445.153473 178.518768,444.863586 
	C148.541748,444.632874 125.262375,431.910919 109.998787,405.733398 
	C103.953125,395.364868 100.793190,383.980804 100.726608,371.952606 
	C100.578110,345.124451 100.667801,318.294952 100.660469,291.466003 
	C100.660263,290.700897 100.660439,289.935760 100.660439,288.696625 
	C90.996140,304.061859 75.408371,308.183258 62.618893,299.001465 
	C56.163776,294.367218 52.569538,288.157928 52.626251,279.925507 
	C52.746784,262.429138 52.639519,244.931335 52.673615,227.434204 
	C52.697922,214.960693 62.375153,205.361786 74.933922,204.497406 
	C86.373787,203.710022 94.491852,208.331696 100.516800,218.886688 
	C100.594498,206.735046 103.063210,195.821762 108.310654,185.766846 
	C122.188446,159.174881 144.122040,144.617020 174.237885,143.789673 
	C196.217651,143.185837 218.227570,143.692551 240.223953,143.655685 
	C241.984665,143.652740 243.853073,144.155884 246.121414,142.744263 
	C244.240524,140.537689 242.489258,138.419312 240.671112,136.360001 
	C220.931290,114.001816 201.161407,91.670113 181.461105,69.277184 
	C179.273743,66.790833 177.156067,65.113518 173.471954,65.187866 
	C168.639175,65.285408 165.412964,61.349930 165.692154,56.724365 
	C165.993927,51.724548 169.757492,48.355076 174.641571,48.712067 
	C179.059021,49.034950 182.889038,53.073315 182.090332,57.618023 
	C181.480087,61.090355 182.657059,63.177467 184.755020,65.536713 
	C206.011826,89.440941 227.187302,113.417465 248.405716,137.355865 
	C249.378021,138.452805 250.222885,139.765152 252.538345,140.405502 
	C256.145325,135.427917 259.965607,130.263290 263.673859,125.019424 
	C277.427216,105.570595 291.114746,86.075119 304.912109,66.657646 
	C306.555481,64.344872 307.353302,62.380730 306.472931,59.375881 
	C305.060272,54.554398 308.408234,50.161079 313.504242,49.252804 
	C317.817841,48.483982 321.840637,51.547504 322.791199,56.325191 
	C323.645172,60.617481 320.124176,65.914200 315.474060,65.839432 
	C311.823944,65.780731 310.505219,67.688866 308.871399,69.996368 
	C292.505981,93.109871 276.121033,116.209503 259.760315,139.326324 
	C259.016479,140.377350 258.451477,141.554993 257.789490,142.697311 
	C259.586029,144.297668 261.503723,143.631714 263.229553,143.636337 
	C284.725952,143.693954 306.222626,143.650864 327.719116,143.690125 
	C363.718628,143.755875 395.538788,171.798447 400.463501,207.576752 
	C400.910187,210.822067 401.193298,214.094833 401.580505,218.409576 
	C408.297699,206.933182 417.686768,203.122604 429.741669,204.599121 
	C439.422119,205.784775 449.235291,215.755356 449.304352,225.534927 
	C449.436188,244.197556 449.436890,262.862305 449.316193,281.525055 
	C449.246246,292.342926 439.135712,302.504700 428.365479,303.382385 
	C416.729828,304.330658 407.859283,300.265961 401.673615,288.840851 
	C401.518158,291.199554 401.354675,292.531433 401.353821,293.863434 
	C401.337646,319.026062 401.169739,344.190094 401.380463,369.350952 
	C401.684540,405.655243 373.863617,438.402557 337.881042,443.515900 
	C322.771088,445.663086 307.627625,444.512512 292.000000,444.879883 
M162.501801,398.962097 
	C167.131454,403.272491 171.405762,408.066467 176.468826,411.787048 
	C185.469666,418.401215 195.248169,423.225769 207.003830,419.717041 
	C208.211136,419.356659 209.296936,419.354401 210.359695,419.978149 
	C215.143097,422.785614 220.405319,422.399933 225.486969,421.734009 
	C238.905273,419.975708 252.473892,422.091370 265.864685,419.926605 
	C267.459045,419.668884 269.267456,419.843170 270.813751,420.332184 
	C278.113708,422.640778 285.298126,421.937866 292.469330,419.854584 
	C295.528046,418.966034 299.012695,418.842560 300.992035,421.083374 
	C304.928650,425.540131 309.788574,425.288574 314.756714,425.052673 
	C319.242401,424.839661 323.707306,424.219696 328.188202,423.865967 
	C333.813599,423.421906 338.085144,421.150726 341.591431,416.406891 
	C347.442108,408.491150 353.872314,400.700317 363.650604,397.571686 
	C368.975159,395.868042 372.793274,393.867737 373.162140,387.809357 
	C373.257324,386.245911 374.339111,385.063141 375.449982,384.037628 
	C377.764984,381.900574 379.104065,379.228058 379.422150,376.168945 
	C380.372406,367.031250 381.578583,357.582153 377.964935,348.998413 
	C373.770905,339.036041 373.510620,329.925598 378.597015,320.326691 
	C380.570282,316.602783 382.221924,313.678284 386.801819,312.607147 
	C394.243988,310.866638 395.965790,308.253052 396.075256,300.833038 
	C396.286530,286.508240 396.582062,272.183258 396.620850,257.857727 
	C396.670654,239.455994 397.678589,220.992142 393.579620,202.807983 
	C392.680664,198.820053 391.855652,194.948822 387.192841,193.561920 
	C385.916473,193.182297 384.722839,192.310486 384.346039,190.936035 
	C382.908630,185.692703 379.977539,185.336945 375.748230,187.958420 
	C373.803070,189.164093 371.754639,188.787598 370.704529,186.523300 
	C369.630219,184.206665 370.831421,182.764542 372.971222,181.828430 
	C375.794189,180.593475 378.584229,179.283142 381.220184,178.081879 
	C380.877075,175.531372 379.593781,174.166367 378.394287,172.804138 
	C364.146790,156.623550 346.143616,148.489182 324.668243,148.415619 
	C300.343811,148.332291 276.018188,148.701111 251.692978,148.723694 
	C233.533295,148.740555 215.370819,148.286697 197.214478,148.486694 
	C185.080460,148.620331 172.828903,148.416931 160.907349,151.032288 
	C152.764267,152.818726 143.918442,153.986008 139.525482,162.866409 
	C139.246094,163.431183 138.664734,163.908615 138.120316,164.271194 
	C124.135284,173.585312 117.945976,189.094803 108.274933,201.833603 
	C107.896767,202.331741 107.691383,203.038620 107.612000,203.674026 
	C106.828911,209.942200 105.512856,216.209274 105.441360,222.489105 
	C105.183372,245.149139 105.894562,267.833069 105.102905,290.468201 
	C104.754265,300.436859 109.669853,307.003693 115.854790,312.762390 
	C120.953659,317.509857 123.412598,322.792480 123.944786,329.253113 
	C124.518356,336.216125 125.044830,343.227386 124.865585,350.198914 
	C124.479019,365.233368 129.407623,377.188141 142.003067,386.292084 
	C148.409668,390.922699 156.057205,393.243347 162.501801,398.962097 
M66.515831,212.822052 
	C61.652172,215.867554 58.804844,220.467468 58.390182,225.954712 
	C57.638199,235.905746 57.656620,245.911758 58.464943,255.880692 
	C58.567524,257.145844 59.260490,258.419342 59.890705,259.573914 
	C61.252781,262.069366 63.030453,262.397888 65.016335,260.217529 
	C65.799400,259.357758 66.431664,258.360077 67.219841,257.505676 
	C70.410278,254.047150 73.845070,254.549316 75.879494,258.757690 
	C76.843903,260.752625 76.718437,262.986115 77.199936,265.074982 
	C78.680702,271.498932 77.210632,278.229797 80.428154,284.607910 
	C83.258720,290.218933 87.575981,290.081848 92.058876,289.315125 
	C96.014969,288.638458 96.428032,284.600769 96.752213,281.366852 
	C98.499802,263.933258 98.359039,246.387619 97.138954,229.005585 
	C95.976250,212.441147 82.486137,205.652420 66.515831,212.822052 
M425.084137,280.551849 
	C434.143646,278.487457 438.247467,272.191956 439.554504,263.544983 
	C440.409302,257.889740 440.314941,252.277222 438.923004,246.681870 
	C436.724945,237.846252 435.873962,228.737427 432.354889,220.143707 
	C430.275879,215.066666 424.867340,211.009109 419.639343,212.538574 
	C414.673492,213.991364 404.671631,226.548080 404.609589,231.887741 
	C404.435455,246.880112 404.345825,261.875824 404.487244,276.867737 
	C404.521088,280.453278 404.819092,284.230835 407.124817,287.362366 
	C408.951721,289.843628 411.390503,290.701050 413.229767,287.928955 
	C415.979218,283.784973 420.208740,282.483063 425.084137,280.551849 
M171.370605,59.080463 
	C173.053345,61.022358 174.709030,60.812733 176.341110,59.014870 
	C177.307465,57.950336 177.815033,56.786671 176.784668,55.509079 
	C175.809464,54.299889 174.507217,53.411396 172.942963,53.957623 
	C170.763977,54.718502 169.799469,56.245838 171.370605,59.080463 
M316.912018,59.363251 
	C318.031921,57.508476 317.897003,55.850143 315.927460,54.725163 
	C314.691162,54.019012 313.356628,54.078819 312.308929,55.221394 
	C311.316803,56.303349 311.031921,57.602074 311.827606,58.862411 
	C312.973663,60.677738 314.524200,61.225689 316.912018,59.363251 
z"/>
<path fill="#000000" opacity="1.000000" stroke="none" 
	d="
M361.678986,254.908203 
	C353.215973,254.956223 345.218903,255.101898 337.228210,254.937729 
	C333.315277,254.857346 331.912506,256.400879 331.998810,260.249786 
	C332.177979,268.240295 331.972992,276.238800 332.093170,284.231506 
	C332.147034,287.814087 330.805573,289.386261 327.095184,289.247009 
	C321.939331,289.053528 316.766876,289.076477 311.609009,289.241302 
	C308.013336,289.356232 306.520020,288.039062 306.608154,284.308777 
	C306.792999,276.485291 306.538208,268.651825 306.698303,260.827240 
	C306.784760,256.601166 305.211365,254.785767 300.841217,254.900635 
	C293.185516,255.101883 285.518219,254.829285 277.859467,254.963791 
	C274.095123,255.029877 272.387726,253.766418 272.609833,249.756516 
	C272.876587,244.941452 272.901215,240.085052 272.593079,235.274597 
	C272.330719,231.179550 274.170990,230.038162 277.854065,230.089172 
	C285.347229,230.192978 292.848236,229.926849 300.335999,230.149933 
	C304.978424,230.288239 306.954895,228.764053 306.742859,223.844925 
	C306.413208,216.197800 306.785126,208.522903 306.604706,200.865784 
	C306.519104,197.233292 307.814636,195.696594 311.504669,195.810715 
	C316.662659,195.970245 321.831635,195.929001 326.991882,195.804932 
	C330.586853,195.718475 332.121277,197.239685 332.070282,200.859070 
	C331.960052,208.685333 332.232971,216.520874 331.966431,224.339569 
	C331.815552,228.765625 333.544678,230.235748 337.802521,230.112503 
	C345.124695,229.900604 352.462646,230.219833 359.783661,229.988495 
	C364.151672,229.850479 365.706085,231.484039 365.418396,235.836365 
	C365.089539,240.811630 365.279541,245.825226 365.346008,250.820801 
	C365.376709,253.131165 364.776672,254.755219 361.678986,254.908203 
z"/>
<path fill="#000000" opacity="1.000000" stroke="none" 
	d="
M159.946686,230.075775 
	C170.048584,230.099426 170.038757,230.099442 170.017914,220.633789 
	C170.003601,214.136734 170.083084,207.638824 170.000748,201.142822 
	C169.953888,197.446182 171.321167,195.608429 175.302017,195.779633 
	C180.290665,195.994186 185.301331,195.982376 190.291412,195.786209 
	C194.239471,195.631012 195.515564,197.284729 195.410782,201.123322 
	C195.197235,208.947372 195.556290,216.788956 195.270950,224.608398 
	C195.115326,228.873383 196.820999,230.175323 200.801315,230.089340 
	C207.961090,229.934723 215.127289,230.060257 222.290680,230.095993 
	C229.319092,230.131042 229.323257,230.145920 229.328796,236.921509 
	C229.332336,241.252960 229.130966,245.595123 229.374100,249.912613 
	C229.584137,253.642181 228.044846,254.987625 224.458969,254.941040 
	C216.963776,254.843628 209.465958,254.926285 201.969360,254.962280 
	C195.719879,254.992294 195.388733,255.312973 195.372437,261.377258 
	C195.351852,269.040588 195.225266,276.707642 195.426117,284.365723 
	C195.524597,288.121338 194.028717,289.380798 190.428848,289.251221 
	C185.271072,289.065582 180.098358,289.086792 174.938446,289.238708 
	C171.228073,289.347992 169.912170,287.652069 169.958878,284.118469 
	C170.062332,276.289948 169.827469,268.454498 170.050781,260.631012 
	C170.176483,256.227234 168.400955,254.758911 164.134537,254.897461 
	C156.811905,255.135223 149.473999,254.866058 142.147141,255.024246 
	C138.245987,255.108490 136.281921,253.965042 136.558868,249.616806 
	C136.875916,244.639267 136.765503,239.620926 136.581726,234.629852 
	C136.461594,231.367340 137.874908,230.100052 140.965637,230.112488 
	C147.129227,230.137283 153.293121,230.091446 159.946686,230.075775 
z"/>
<path fill="#000000" opacity="1.000000" stroke="none" 
	d="
M191.250031,366.262939 
	C195.015625,360.216064 195.879013,353.485657 198.235657,347.291840 
	C198.739395,345.967896 198.686203,343.924011 200.624069,343.898132 
	C202.781067,343.869263 203.033875,345.819733 203.329285,347.479065 
	C205.286896,358.475281 205.228607,369.654144 206.343903,380.726654 
	C206.469910,381.977783 205.893280,383.366577 207.625580,385.151306 
	C209.824585,374.850769 211.947174,365.098785 213.980789,355.328217 
	C215.965210,345.793945 214.949631,335.730591 219.157410,326.366608 
	C224.951126,342.047028 223.020905,358.759277 226.414886,376.131775 
	C229.413345,369.200775 230.986084,363.341949 231.516647,357.341278 
	C232.483337,346.407898 232.945419,335.430542 233.689850,324.476379 
	C233.881027,321.663239 234.370041,318.871399 234.664871,316.063751 
	C234.836227,314.432129 235.273727,313.117767 237.228119,313.006744 
	C239.603165,312.871796 239.927689,314.694641 240.123505,316.305267 
	C240.604874,320.264496 241.112457,324.243195 241.200623,328.223083 
	C241.425339,338.368042 242.107452,348.467285 243.319305,358.542389 
	C244.213486,365.976532 247.628647,372.773712 248.413025,380.311676 
	C251.807632,368.135712 249.963943,355.137787 255.133942,342.070740 
	C262.003418,350.593964 258.390259,361.103333 264.167847,369.342834 
	C268.235138,363.504639 267.743805,357.238098 268.631775,351.393188 
	C269.528839,345.488525 270.028809,339.524414 270.777740,333.595825 
	C270.990265,331.913544 271.642426,330.381836 273.898193,329.349915 
	C277.469879,332.925262 276.703491,337.796448 277.267273,342.145966 
	C278.703278,353.224121 278.496582,364.501831 281.076233,375.785492 
	C289.299133,356.773773 285.574371,336.240967 289.889252,317.130432 
	C293.684326,317.059570 294.097534,318.998413 294.348633,321.383820 
	C295.410980,331.475067 296.019226,341.589478 296.357269,351.729034 
	C296.751221,363.543579 301.184448,374.556946 303.332123,386.150879 
	C305.786224,371.840637 304.717407,357.109924 309.048431,342.843201 
	C312.844391,344.945831 319.050812,362.313019 318.521851,367.523590 
	C314.891815,366.578278 315.606934,362.635681 313.713715,360.531982 
	C311.125549,362.996002 312.447174,365.377533 313.789673,367.561493 
	C306.744537,372.785492 307.724091,380.699219 306.472870,387.640198 
	C305.004578,395.785065 304.313782,404.071594 303.341217,412.303253 
	C303.117432,414.197205 302.528290,415.789795 300.403870,417.386780 
	C297.795654,413.427917 298.084106,409.113312 297.742188,405.074982 
	C296.423584,389.502472 296.397644,373.841400 294.600647,358.297333 
	C294.159851,354.484253 292.975403,350.911041 291.393829,346.681519 
	C284.945160,361.731171 288.920868,378.030029 282.422516,392.619873 
	C278.972778,379.070709 275.917511,365.608032 272.528809,351.511749 
	C269.537903,357.194214 269.438873,362.962189 268.351593,368.466583 
	C267.868591,370.911926 267.618103,373.407196 267.050781,375.830353 
	C266.716187,377.259460 266.128967,378.907928 264.243561,378.824463 
	C262.663330,378.754547 262.121063,377.291412 261.811584,376.008636 
	C260.494843,370.550751 259.273346,365.069855 257.812958,358.708221 
	C251.284424,373.411224 251.642776,388.866760 246.682449,403.092621 
	C242.965271,397.656250 243.231949,391.653320 242.739914,385.879974 
	C241.865051,375.614624 241.397812,365.314789 240.546829,355.047028 
	C240.264374,351.639099 239.207504,348.327789 237.204773,344.808502 
	C230.757050,360.360962 233.882645,377.095703 228.041153,392.475342 
	C224.133835,379.238983 222.357376,365.634888 217.799515,352.628479 
	C214.325363,363.221039 215.711380,374.309021 214.582993,385.111755 
	C213.459778,395.865265 214.252243,406.840240 210.659286,418.299835 
	C206.545547,414.748108 207.181961,410.685394 206.739777,407.206696 
	C205.399719,396.664459 203.998032,386.141449 201.384171,375.828186 
	C200.869904,373.799103 200.493713,371.532410 198.105759,370.002563 
	C194.578705,377.252716 197.572403,386.237244 191.523041,393.874512 
	C185.584976,385.775391 186.692337,376.230835 182.727081,368.420013 
	C187.189957,369.070435 186.149429,373.395782 188.861938,375.617767 
	C189.054169,372.302246 186.417313,368.381958 191.250031,366.262939 
z"/>
<path fill="#000000" opacity="1.000000" stroke="none" 
	d="
M357.071808,166.209259 
	C358.291748,164.641693 359.622986,163.720703 360.908691,165.226364 
	C362.405548,166.979248 362.157501,169.193298 361.385468,171.245636 
	C361.006897,172.252075 360.043549,172.742371 358.994995,172.462891 
	C356.943970,171.916229 356.184814,170.387161 356.348450,168.378357 
	C356.399841,167.747162 356.701447,167.136353 357.071808,166.209259 
z"/>
</svg>